# AST/ASF file generated using VICON BodyLanguage
# -----------------------------------------------
:version 1.10
:name VICON
:units
  mass 1.0
  length 0.45
  angle deg
:documentation
   .ast/.asf automatically generated from VICON data using
   VICON BodyBuilder and BodyLanguage model FoxedUp or BRILLIANT.MOD
:root
   order TX TY TZ RX RY RZ
   axis XYZ
   position 0 0 0  
   orientation 0 0 0 
:bonedata
  begin
     id 1 
     name lhipjoint
     direction 0.547975 -0.797114 0.253638 
     length 2.36201 
     axis 0 0 0  XYZ
  end
  begin
     id 2 
     name lfemur
     direction 0.34202 -0.939693 0  
     length 7.69075  
     axis 0 0 20  XYZ
    dof rx ry rz
    limits (-160.0 20.0)
           (-70.0 70.0)
           (-60.0 70.0)
  end
  begin
     id 3 
     name ltibia
     direction 0.34202 -0.939693 0   
     length 7.91399   
     axis 0 0 20   XYZ
    dof rx
    limits (-10.0 170.0)
  end
  begin
     id 4 
     name lfoot
     direction 0.0705293 -0.193778 0.978507   
     length 2.13618   
     axis -90 7.62852e-016 20   XYZ
    dof rx rz
    limits (-45.0 90.0)
           (-70.0 20.0)
  end
  begin
     id 5 
     name ltoes
     direction 1.53592e-011 -4.21925e-011 1   
     length 1.07518   
     axis -90 7.62852e-016 20   XYZ
    dof rx
    limits (-90.0 20.0)
  end
  begin
     id 6 
     name rhipjoint
     direction -0.57 -0.782963 0.249136   
     length 2.4047  
     axis 0 0 0  XYZ 
  end
  begin
     id 7 
     name rfemur
     direction -0.34202 -0.939693 0   
     length 7.51486   
     axis 0 0 -20   XYZ
    dof rx ry rz
    limits (-160.0 20.0)
           (-70.0 70.0)
           (-70.0 60.0)
  end
  begin
     id 8 
     name rtibia
     direction -0.34202 -0.939693 0   
     length 8.08317   
     axis 0 0 -20   XYZ
    dof rx
    limits (-10.0 170.0)
 end
 begin
     id 9 
     name rfoot
     direction -0.104954 -0.281256 0.953876   
     length 2.30343  
     axis -90 -7.62852e-016 -20   XYZ
    dof rx rz
    limits (-45.0 90.0)
           (-20.0 70.0)
  end
  begin
     id 10 
     name rtoes
     direction -1.53556e-011 -4.21922e-011 1   
     length 1.14803   
     axis -90 -7.62852e-016 -20   XYZ
    dof rx
    limits (-90.0 20.0)
  end
  begin
     id 11 
     name lowerback
     direction -0.0152855 0.99353 -0.11254   
     length 2.05311   
     axis 0 0 0   XYZ
    dof rx ry rz
    limits (-20.0 45.0)
           (-30.0 30.0)
           (-30.0 30.0)
  end
  begin
     id 12 
     name upperback
     direction -0.00157509 0.999443 -0.033332   
     length 2.06353   
     axis 0 0 0   XYZ
    dof rx ry rz
    limits (-20.0 45.0)
           (-30.0 30.0)
           (-30.0 30.0)
  end
  begin
     id 13 
     name thorax
     direction 0.00577788 0.999804 0.0189484   
     length 2.08472   
     axis 0 0 0   XYZ
    dof rx ry rz
    limits (-20.0 45.0)
           (-30.0 30.0)
           (-30.0 30.0)
  end
  begin
     id 14 
     name lowerneck
     direction -1.09301e-005 0.994719 0.10264   
     length 1.76249   
     axis 0 0 0   XYZ
    dof rx ry rz
    limits (-20.0 45.0)
           (-30.0 30.0)
           (-30.0 30.0)
  end
  begin
     id 15 
     name upperneck
     direction 0.0495018 0.988526 -0.142706   
     length 1.77897   
     axis 0 0 0   XYZ
    dof rx ry rz
    limits (-20.0 45.0)
           (-30.0 30.0)
           (-30.0 30.0)
  end
  begin
     id 16
     name head
     direction 0.0142736 0.998114 -0.0597101  
     length 1.78934  
     axis 0 0 0   XYZ
    dof rx ry rz
    limits (-20.0 45.0)
           (-30.0 30.0)
           (-30.0 30.0)
  end
  begin
     id 17 
     name lclavicle
     direction 0.918111 0.396107 -0.0130883  
     length 3.37276  
     axis 0 0 0   XYZ
    dof ry rz
    limits (-20.0 10.0)
           (0.0 20.0)
  end
  begin
     id 18 
     name lhumerus
     direction 1 -4.48975e-011 -3.26108e-027   
     length 5.34298   
     axis 180 -30 -90   XYZ
    dof rx ry rz
    limits (-60.0 90.0)
           (-90.0 90.0)
           (-90.0 90.0)
  end
  begin
     id 19
     name lradius
     direction 1 -4.48964e-011 -8.84413e-028   
     length 3.67262   
     axis 180 -30 -90   XYZ
    dof rx
    limits (-10.0 170.0)
  end
  begin
     id 20
     name lwrist
     direction 1 -4.48991e-011 -1.24264e-027   
     length 1.83631   
     axis -2.17013e-015 90 90   XYZ
    dof ry
    limits (-180.0 0.0)
 end
  begin
     id 21 
     name lhand
     direction 1 -4.48855e-011 -2.48528e-027   
     length 0.599298   
     axis 1.58582e-015 90 90   XYZ
    dof rx rz
    limits (-90.0 90.0)
           (-45.0 45.0)
  end
  begin
     id 22 
     name lfingers
     direction 1 -4.48811e-011 -4.97056e-027   
     length 0.48317   
     axis 3.17164e-015 90 90   XYZ
    dof rx
    limits (0.0 90.0)
  end
  begin
     id 23
     name lthumb
     direction 0.707107 -6.34882e-011 0.707107   
     length 0.693738   
     axis -90 45 2.85299e-015   XYZ
    dof rx rz
    limits (-45.0 45.0)
           (-45.0 45.0)
  end
  begin
     id 24 
     name rclavicle
     direction -0.920511 0.384752 -0.0680135   
     length 3.43787  
     axis 0 0 0   XYZ 
    dof ry rz
    limits (-10.0 20.0)
           (-20.0 0.0)
  end
  begin
     id 25 
     name rhumerus
     direction -0.999976 -0.00330524 0.00603274  
     length 5.5498   
     axis 180 30 90   XYZ
    dof rx ry rz
    limits (-90.0 60.0)
           (-90.0 90.0)
           (-90.0 90.0)
  end
  begin
     id 26 
     name rradius
     direction -1 -4.48967e-011 8.62438e-027   
     length 3.69401   
     axis 180 30 90   XYZ
    dof rx
    limits (-10.0 170.0)
  end
  begin
     id 27 
     name rwrist
     direction -1 -4.4897e-011 9.54866e-027   
     length 1.84701   
     axis -7.69462e-015 -90 -90   XYZ
    dof ry
    limits (-180.0 0.0)
  end
  begin
     id 28
     name rhand
     direction -1 -4.48982e-011 1.90973e-026   
     length 0.638113   
     axis -1.21857e-014 -90 -90   XYZ
    dof rx rz
    limits (-90.0 90.0)
           (-45.0 45.0)
  end
  begin
     id 29
     name rfingers
     direction -1 -4.48936e-011 3.81946e-026   
     length 0.514463   
     axis -2.43714e-014 -90 -90   XYZ
    dof rx
    limits (0.0 90.0)
  end
  begin
     id 30
     name rthumb
     direction -0.707107 -6.34942e-011 0.707107   
     length 0.738669   
     axis -90 -45 -2.85299e-015   XYZ
    dof rx rz
    limits (-45.0 45.0)
           (-45.0 45.0)
  end
:hierarchy
  begin
    root lhipjoint rhipjoint lowerback
    lhipjoint lfemur
    lfemur ltibia
    ltibia lfoot
    lfoot ltoes
    rhipjoint rfemur
    rfemur rtibia
    rtibia rfoot
    rfoot rtoes
    lowerback upperback
    upperback thorax
    thorax lowerneck lclavicle rclavicle
    lowerneck upperneck
    upperneck head
    lclavicle lhumerus
    lhumerus lradius
    lradius lwrist
    lwrist lhand lthumb
    lhand lfingers
    rclavicle rhumerus
    rhumerus rradius
    rradius rwrist
    rwrist rhand rthumb
    rhand rfingers
  end

#!OML:ASF F:\twosubjects\two\Thursday\Session 1\Rory.ASF
:FULLY-SPECIFIED
:DEGREES
33
root 8.78518 18.1686 -16.5284 4.5184 -15.7757 -1.01816
lowerback 0.459751 0.986951 1.53509
upperback 0.430489 1.32032 -0.228834
thorax 0.223059 0.664564 -1.09707
lowerneck -9.41925 0.603704 -4.52921
upperneck 25.5871 2.33956 -2.5595
head 9.63057 0.34525 0.133904
rclavicle 2.11271e-014 -1.2921e-015
rhumerus -15.2302 0.696843 -77.8482
rradius 33.9118
rwrist 13.7587
rhand -16.8725 22.3477
rfingers 7.12502
rthumb 9.35834 -7.42461
lclavicle 2.11271e-014 -1.2921e-015
lhumerus -37.3406 14.061 78.676
lradius 34.6117
lwrist -18.4194
lhand -8.82577 32.0463
lfingers 7.12502
lthumb 17.1142 61.3125
rfemur -2.12548 2.25562 26.8171
rtibia 18.1869
rfoot -14.0144 -3.19667
rtoes 2.22696
lfemur -27.2792 3.29762 -17.3472
ltibia 24.638
lfoot -5.74991 9.30854
ltoes 4.91086
34
root 8.76479 18.1732 -16.4337 4.51974 -15.9486 -1.2063
lowerback 0.586762 1.0439 1.64227
upperback 0.382333 1.39915 -0.21356
thorax 0.107223 0.70294 -1.14474
lowerneck -9.55663 0.690105 -4.5519
upperneck 25.7999 2.51441 -2.6739
head 9.73417 0.403352 0.117647
rclavicle 1.0312e-015 6.85807e-015
rhumerus -14.5132 1.22239 -77.7274
rradius 34.3824
rwrist 13.4125
rhand -17.281 21.9338
rfingers 7.12502
rthumb 8.96416 -7.85575
lclavicle 1.0312e-015 6.85807e-015
lhumerus -37.5188 13.6164 78.8816
lradius 34.8717
lwrist -17.9955
lhand -11.1116 30.4711
lfingers 7.12502
lthumb 14.913 59.9143
rfemur -1.28611 2.34341 26.9819
rtibia 17.3462
rfoot -13.6701 -3.08101
rtoes 2.05611
lfemur -27.0563 3.59853 -17.2655
ltibia 22.6341
lfoot -5.00711 9.05601
ltoes 3.62801
35
root 8.74556 18.1784 -16.3383 4.64781 -16.0391 -1.52744
lowerback 0.483387 1.0924 1.84766
upperback 0.412546 1.4623 -0.154554
thorax 0.20174 0.735919 -1.19691
lowerneck -9.55301 0.687309 -4.45044
upperneck 25.7443 2.55568 -2.9362
head 9.71948 0.405049 0.0137089
rclavicle -7.15749e-014 1.51076e-014
rhumerus -13.5541 1.34991 -77.5894
rradius 34.6365
rwrist 13.3148
rhand -18.105 21.8471
rfingers 7.12502
rthumb 8.16902 -7.97502
lclavicle -7.15749e-014 1.51076e-014
lhumerus -37.4317 13.5484 79.0145
lradius 34.9081
lwrist -17.5701
lhand -6.28983 32.7217
lfingers 7.12502
lthumb 19.5537 61.7584
rfemur -0.601494 2.49535 27.2986
rtibia 16.5512
rfoot -13.2565 -3.04157
rtoes 1.72449
lfemur -26.9037 3.64343 -16.9854
ltibia 20.7162
lfoot -4.50955 9.36572
ltoes 2.10281
36
root 8.72826 18.1954 -16.2298 4.63946 -16.2209 -1.49926
lowerback 0.249195 1.13141 1.80251
upperback 0.452823 1.50934 -0.21407
thorax 0.37625 0.761338 -1.22685
lowerneck -9.35729 0.641717 -4.53787
upperneck 25.6257 2.49082 -2.94384
head 9.63977 0.371316 0.0178292
rclavicle -3.52843e-014 -9.54166e-015
rhumerus -12.7121 1.78888 -77.4998
rradius 35.0525
rwrist 12.9792
rhand -17.5922 21.9375
rfingers 7.12502
rthumb 8.66393 -7.86472
lclavicle -3.52843e-014 -9.54166e-015
lhumerus -37.5164 13.9416 78.9379
lradius 34.9055
lwrist -17.4934
lhand -14.825 28.2855
lfingers 7.12502
lthumb 11.3336 57.9592
rfemur 0.117731 2.2041 27.1338
rtibia 15.8091
rfoot -13.0423 -2.52936
rtoes 1.00893
lfemur -26.5501 2.97394 -16.8503
ltibia 18.9217
lfoot -4.65639 10.5242
ltoes 3.00025
37
root 8.71152 18.2077 -16.1235 4.64236 -16.4709 -1.66138
lowerback 0.187333 1.13904 2.02057
upperback 0.418571 1.51874 -0.274691
thorax 0.383575 0.766762 -1.41004
lowerneck -9.20026 0.671476 -4.80044
upperneck 25.5872 2.50947 -2.70873
head 9.58972 0.382738 0.144872
rclavicle -1.05604e-015 8.34896e-015
rhumerus -11.9289 2.889 -77.4775
rradius 35.4267
rwrist 12.3296
rhand -17.4151 22.4201
rfingers 7.12502
rthumb 8.83479 -7.37496
lclavicle -1.05604e-015 8.34896e-015
lhumerus -37.8533 14.0335 78.8505
lradius 35.0385
lwrist -16.9003
lhand -10.4924 30.8338
lfingers 7.12502
lthumb 15.5095 60.2317
rfemur 0.838695 1.8808 27.1454
rtibia 15.1822
rfoot -12.8693 -1.93766
rtoes 0.213334
lfemur -26.1472 2.49733 -16.545
ltibia 17.1479
lfoot -4.72109 11.609
ltoes 1.94663
38
root 8.69206 18.2108 -16.0245 4.65568 -16.6406 -1.87142
lowerback 0.0610853 1.18166 2.15037
upperback 0.496772 1.57184 -0.289763
thorax 0.540494 0.796179 -1.49394
lowerneck -9.32913 0.674268 -4.85809
upperneck 25.6348 2.54231 -2.73191
head 9.63152 0.386814 0.150809
rclavicle 2.11954e-014 -4.17448e-015
rhumerus -10.9739 3.56516 -77.372
rradius 35.777
rwrist 11.7623
rhand -17.4057 22.6881
rfingers 7.12502
rthumb 8.84384 -7.10659
lclavicle 2.11954e-014 -4.17448e-015
lhumerus -37.7632 13.7098 78.9486
lradius 34.9428
lwrist -16.4425
lhand -8.77202 31.7786
lfingers 7.12502
lthumb 17.1659 61.0404
rfemur 1.53305 1.82899 27.2919
rtibia 14.664
rfoot -12.5949 -1.64872
rtoes 0.128553
lfemur -25.8028 2.60082 -16.3907
ltibia 15.391
lfoot -4.05926 12.0495
ltoes -2.35265
39
root 8.67358 18.2136 -15.9182 4.6212 -16.8062 -1.68962
lowerback -0.247797 1.26927 1.82259
upperback 0.613485 1.68279 -0.333568
thorax 0.82954 0.853866 -1.34526
lowerneck -9.66275 0.676477 -4.84257
upperneck 25.8614 2.62475 -2.9102
head 9.78052 0.395928 0.0969409
rclavicle 8.05078e-015 -1.61016e-014
rhumerus -10.1186 3.88061 -77.1133
rradius 36.3411
rwrist 11.3991
rhand -16.7001 22.1088
rfingers 7.12502
rthumb 9.52475 -7.65594
lclavicle 8.05078e-015 -1.61016e-014
lhumerus -37.5193 13.5954 79.165
lradius 34.7007
lwrist -16.5691
lhand -8.80637 31.5198
lfingers 7.12502
lthumb 17.1328 60.7844
rfemur 2.15503 1.86184 27.016
rtibia 14.1743
rfoot -12.3115 -1.4367
rtoes -0.519578
lfemur -25.4488 2.04195 -16.4442
ltibia 13.8393
lfoot -3.77353 13.2239
ltoes -2.64878
